PathFileType	4	(X/Y/Z)	D:\TRACE\spotREDO_2-26-24\spot_Both_Motion_1_1-v60.trc
DataRate	CameraRate	NumFrames	NumMarkers	Units	OrigDataRate	OrigDataStartFrame	OrigNumFrames
100.00	100.00	      34	9	mm	100.00	5251	      7000
Frame#	Time	front left toe			Front right toe			aft left toe			aft right toe			Arm			FL body			FR body			AL Body			AR Body			
		X1	Y1	Z1	X2	Y2	Z2	X3	Y3	Z3	X4	Y4	Z4	X5	Y5	Z5	X6	Y6	Z6	X7	Y7	Z7	X8	Y8	Z8	X9	Y9	Z9	

5251	52.500	-285.26215	29.21100	-501.66342	90.89430	27.90821	-423.18118	-380.68857	11.77906	125.23413	-30.39470	19.37882	187.42876	-133.36740	721.60712	-782.16656	-164.85878	581.92865	-524.14288	-12.63639	585.38110	-494.40759	-340.73669	563.32227	342.57486	-202.16855	567.24005	371.38495	
5252	52.510	-284.85541	29.30959	-501.43945	91.19809	28.18164	-423.29462	-380.18591	12.03419	125.51469	-29.46077	19.08862	187.32664	-134.64622	722.02417	-781.75427	-164.16005	582.09094	-522.88788	-11.54738	585.57300	-493.22137	-338.97311	563.12006	343.94559	-200.41559	566.86023	372.67883	
5253	52.520	-284.31757	29.38551	-501.25876	91.63467	28.81740	-423.40170	-379.28592	12.10300	125.75246	-28.13776	18.97408	187.70328	-135.69945	722.81445	-781.83063	-163.59547	582.23566	-521.53558	-11.13511	586.02728	-492.22992	-336.85901	562.68372	345.41455	-198.21042	566.49414	373.82245	
5254	52.530	-283.99969	29.46589	-501.21585	92.35226	29.34715	-423.24988	-377.94022	12.37132	125.96411	-27.33781	18.58856	187.80447	-135.32838	723.47479	-781.36768	-163.39177	582.57953	-520.41620	-10.96136	586.40723	-491.46774	-334.15875	562.28607	347.43524	-195.53944	566.19232	375.26990	
5255	52.540	-283.57593	29.48579	-500.95428	93.01667	29.87798	-423.62369	-377.21194	12.66360	126.18459	-26.12927	18.33168	187.72404	-134.61736	724.03241	-781.11414	-163.45000	583.04333	-518.88287	-11.05191	587.02478	-490.58301	-331.52097	561.98126	349.32935	-192.47594	565.78064	377.06238	
5256	52.550	-282.97830	29.59211	-500.47650	93.54502	30.21944	-423.85938	-376.16113	12.56092	126.45610	-25.25363	18.15003	187.84570	-132.62837	724.06201	-780.39789	-163.28554	583.51550	-517.46997	-10.77671	587.67096	-489.36887	-328.87424	561.46362	351.36838	-189.54036	565.23303	378.64554	
5257	52.560	-282.40921	29.73944	-500.16312	93.66684	30.07817	-424.21252	-375.28903	12.80108	126.89053	-23.92546	18.16917	187.76765	-131.37364	724.61420	-780.37878	-163.02441	584.37451	-515.64233	-10.19619	588.05780	-488.18845	-326.31644	561.04333	353.20624	-187.12257	564.71301	380.20798	
5258	52.570	-281.57272	29.85811	-500.08386	94.33651	30.26983	-424.20496	-374.61127	12.91444	127.18948	-23.39507	18.16899	187.73801	-130.01883	724.67456	-780.31976	-162.44945	585.10419	-514.07941	-9.72384	588.61780	-486.91306	-323.75711	560.82324	355.41562	-184.53278	564.17065	381.85699	
5259	52.580	-281.18481	29.88894	-500.08801	95.22685	30.73390	-423.92447	-373.51660	12.59237	127.20707	-22.79584	18.11345	187.94853	-128.64290	724.53265	-780.55121	-161.35176	585.85870	-512.23395	-8.50020	589.28253	-485.23267	-321.45779	560.34448	357.12073	-182.18881	563.69006	383.66687	
5260	52.590	-281.22205	29.09624	-500.55609	96.71327	30.84695	-423.45160	-372.95358	13.14228	127.05969	-21.71444	18.08597	188.28905	-127.54499	724.36804	-780.67206	-159.38519	586.14935	-510.17188	-7.03626	589.48761	-483.43036	-319.48203	560.28296	359.36560	-179.81940	563.16675	385.69839	
5261	52.600	-287.74652	34.75383	-498.30521	97.62747	29.32627	-423.35626	-371.80533	13.38500	127.76929	-20.70932	16.17689	188.71202	-126.71830	724.28021	-780.54822	-157.43425	587.18817	-508.20859	-4.84414	590.29041	-481.19406	-317.86255	560.07782	361.61264	-178.40579	562.30933	387.81311	
5262	52.610	-285.06839	44.42935	-492.78021	100.02745	29.23253	-422.00131	-369.97229	13.95223	128.02956	-18.81433	15.66437	189.32169	-126.73533	724.60327	-781.44226	-155.39920	587.38104	-506.75470	-2.34575	590.88776	-479.04480	-317.38449	558.71246	362.66669	-177.62280	562.38770	389.59055	
5263	52.620	-280.16199	56.64738	-489.52377	101.40813	28.79841	-421.85471	-369.04056	13.00546	127.79373	-18.36249	16.60397	188.79013	-124.38125	724.65631	-781.11707	-152.44429	586.85205	-504.77524	0.11260	591.22278	-477.00125	-316.21667	558.96930	364.15417	-177.46269	563.38580	391.03165	
5264	52.630	-289.09439	69.32188	-491.72455	101.93168	28.92045	-421.78162	-368.76379	13.03393	127.99908	-18.74121	16.87403	189.38611	-123.17125	724.92206	-780.47394	-150.11044	587.02191	-502.94183	2.44957	592.04419	-474.90378	-315.38852	558.71362	365.48413	-176.68326	563.61249	392.43307	
5265	52.640	-287.14209	84.71474	-497.09741	103.24178	28.78404	-421.42429	-368.13123	13.58319	128.19417	-16.68522	16.30046	189.15092	-123.43449	725.15833	-779.84650	-148.02762	586.85907	-501.32761	4.49137	592.60028	-472.93149	-315.12317	558.27106	366.75458	-175.51428	563.47192	394.70609	
5266	52.650	-295.08578	97.79362	-501.76050	103.68948	29.05421	-421.62079	-366.69473	13.31876	127.89626	-14.65109	16.26104	190.42033	-123.65903	724.76843	-779.89801	-146.25610	587.70575	-499.67023	6.19914	593.27808	-471.17169	-313.97443	557.74896	368.33136	-175.04027	563.07220	396.07333	
5267	52.660	-292.23996	110.31392	-503.57599	104.87787	29.92439	-421.02551	-365.98770	13.58156	128.49123	-14.26290	15.63959	189.93912	-124.10264	724.55939	-780.05768	-144.11333	588.26617	-497.87500	7.75411	593.85181	-469.55023	-313.07407	557.74554	369.78326	-174.24223	562.86047	397.43390	
5268	52.670	-295.05380	121.09500	-502.58447	105.89265	29.87811	-421.01932	-365.27307	13.37047	128.43417	-13.40782	15.62696	190.35756	-124.68255	724.86346	-779.55139	-143.37505	589.36267	-496.73584	8.97329	594.71454	-468.00964	-312.41052	556.95001	371.02054	-173.58411	562.19287	398.83496	
5269	52.680	-296.97400	128.43100	-499.38013	106.38467	29.69676	-421.14749	-364.14346	13.22313	128.60493	-12.50058	15.50932	190.36507	-125.10209	725.01959	-779.42578	-142.53593	590.16595	-495.23108	10.08841	595.60785	-466.57462	-311.91296	556.25385	372.07465	-172.82564	561.46442	400.10574	
5270	52.690	-295.75397	136.25320	-497.34729	107.20486	30.00110	-421.06555	-363.71915	13.29592	128.42090	-11.54880	15.60923	190.56296	-125.01031	725.16162	-779.56665	-141.99356	590.83655	-494.02625	10.50674	596.23871	-465.24451	-310.81729	556.03772	373.40210	-172.00685	561.10522	401.39145	
5271	52.700	-300.66476	142.10825	-497.70822	107.49522	30.17897	-421.21698	-362.70532	13.41259	128.64554	-10.96909	15.48044	190.57460	-124.98505	725.83533	-779.75421	-141.57018	591.45123	-492.88803	10.96519	596.97125	-464.24741	-310.17862	555.54492	374.78275	-170.97189	560.66595	402.77872	
5272	52.710	-300.92389	145.98860	-498.81232	108.62547	30.53351	-421.26685	-361.53467	13.39359	129.13211	-9.68722	15.60407	190.76784	-124.01404	725.93823	-779.11865	-141.61536	592.06549	-491.49643	10.99002	597.72614	-463.19769	-309.51285	555.15381	376.04813	-170.17940	560.29529	403.87326	
5273	52.720	-303.00055	149.27309	-499.96765	109.49230	31.22798	-421.05093	-360.83850	13.36390	129.17131	-8.83116	15.52036	190.84512	-123.31561	725.87622	-779.27289	-141.60191	592.78601	-490.47552	10.82903	598.19763	-462.35709	-308.48984	554.72162	377.38861	-169.51738	559.95392	405.08401	
5274	52.730	-304.67621	149.58418	-500.00317	109.53616	31.04391	-421.75574	-359.79724	12.93598	129.35788	-8.02637	15.35539	190.73044	-122.42953	725.98389	-779.39148	-141.91267	593.28082	-489.34595	10.72529	598.95544	-461.14267	-308.11316	554.19336	378.50143	-168.76007	559.53021	406.04568	
5275	52.740	-305.68454	149.03995	-499.05643	110.34921	31.30860	-421.41074	-359.17105	12.86268	129.22108	-6.94571	15.45720	190.88062	-122.43110	727.00836	-780.34418	-142.32182	593.48694	-488.72073	10.31154	599.39294	-460.49243	-307.59073	553.88403	379.44281	-168.48634	559.39777	406.95148	
5276	52.750	-306.32373	147.73123	-497.68149	111.60251	31.92034	-421.26425	-357.90945	12.82662	129.64270	-6.21377	15.57732	190.96968	-120.80448	727.91467	-780.74054	-142.42284	593.24915	-488.03955	9.99501	599.57300	-459.94879	-307.57089	553.62201	380.57388	-168.10347	559.30048	407.61569	
5277	52.760	-305.33398	146.79550	-496.55124	112.35206	32.09315	-421.40228	-357.13541	12.61509	129.75719	-5.30948	15.83249	190.87018	-118.90118	729.92450	-780.75580	-143.35612	592.72638	-487.30551	9.48486	599.47186	-459.42062	-307.55127	553.67969	381.14026	-168.03844	559.63776	408.15820	
5278	52.770	-304.95102	146.09634	-495.84573	112.90251	32.29792	-421.49521	-356.49533	12.44701	129.76936	-4.58033	16.01382	190.99237	-116.85892	732.61743	-780.33606	-143.91776	592.34210	-487.02249	8.75437	599.22699	-459.09927	-307.46701	553.64563	381.49231	-168.31656	559.78381	408.57999	
5279	52.780	-303.64224	145.87195	-495.65335	113.55152	32.54035	-421.57248	-355.45755	12.41396	129.92947	-3.86216	16.23065	190.85832	-115.68353	736.10797	-780.70245	-144.37265	592.23364	-486.78064	8.10398	599.11554	-458.93320	-307.67868	553.41400	381.99799	-168.55927	559.81042	408.90738	
5280	52.790	-302.95367	146.12653	-495.86841	114.69261	32.99592	-421.30817	-354.86862	12.21062	129.68147	-3.07947	16.13363	191.00226	-113.93102	739.60272	-779.99896	-144.92566	592.22729	-486.36026	7.71545	599.10535	-458.55661	-308.20901	552.89392	382.19391	-169.09174	559.34949	409.17828	
5281	52.800	-303.00134	146.52531	-496.01288	115.65607	33.25274	-421.08713	-354.21286	11.90756	129.85960	-2.18778	16.08908	191.05511	-111.93994	742.35858	-779.10339	-145.27037	592.48633	-486.12485	7.41051	599.34528	-458.20496	-309.02753	552.51514	382.19235	-170.05807	558.81854	409.34708	
5282	52.810	-303.29230	146.81419	-496.13092	116.45860	33.23349	-421.15692	-353.04654	11.48825	130.03067	-1.53977	16.17107	191.15448	-111.09713	745.68719	-779.04431	-145.48540	592.89368	-485.79892	7.24494	599.64001	-457.86642	-309.78076	551.94238	382.31912	-170.85405	558.06567	409.60513	
5283	52.820	-304.38043	146.51541	-496.40793	117.80101	33.22341	-420.76288	-352.36841	11.34595	130.08392	-0.56455	16.15142	191.20543	-110.36700	747.68359	-778.49042	-145.59946	593.52374	-485.35867	7.32548	599.93475	-457.19046	-311.17877	551.14764	382.28082	-171.97699	557.32599	409.70398	
5284	52.830	-306.04663	144.26884	-496.59698	118.98621	33.52462	-420.33884	-351.76892	11.23692	130.01640	0.10545	16.12115	191.15506	-110.29548	749.12854	-778.30609	-145.27003	594.24792	-485.21616	7.30070	600.45746	-456.67221	-312.35892	550.77820	382.29706	-173.26344	556.43842	409.91232	
